<svg xmlns="http://www.w3.org/2000/svg" width="248" height="87" viewBox="0 0 248 87">
    <g fill="none" fill-rule="evenodd">
        <path fill="#6CB644" d="M40.363 86.796c-11.158-2.23-21.403-8.341-27.623-18.04-6.386-9.956-8.432-22.83-4.334-34.057 3.758-10.297 12.105-18.553 22.73-21.474 10.993-3.023 23.806-.021 31.23 8.947 8.054 9.73 7.684 25.38-2.368 33.62C64.65 49.94 65.03 44.992 65.28 42.25c.484-5.283-.668-10.9-3.546-15.387-5.52-8.606-16.138-12.813-26.107-11.364-10.36 1.506-19.1 8.555-23.302 18.1-4.258 9.675-3.4 20.865 1.356 30.197 5.44 10.673 15.795 17.413 27.345 19.729l-.664 3.272c-3.537-.707 0 0 0 0"/>
        <path fill="#00A9AC" d="M.18 45.978C.318 24.054 18.58 5.59 40.517 5.692c10.782.05 21.026 5.477 26.998 14.524C73.313 29 74.847 40.93 69.79 50.394c-5.337 9.987-17.748 16.117-28.813 12.744 9.81.92 19.595-2.572 24.892-11.329 5.559-9.19 4.436-20.514-1.073-29.435C54.135 5.111 30.165 5.181 16 17.933 8.09 25.05 3.115 35.227 3.247 46.005L.18 45.978c.02-3.36 0 0 0 0"/>
        <path fill="#454B4C" d="M31.67 39.428a4.287 4.287 0 0 1 1.83-.395c.73 0 1.258.102 1.732.338.837.424 1.347 1.308 1.574 2.113h-6.911c.278-.738.8-1.582 1.775-2.056zm5.425 6.846c-.428 1.004-1.734 2.08-3.594 2.08-.65 0-1.284-.138-1.819-.397-1.936-.948-2.148-3.294-2.148-4.263V43.6h9.573v-.973c0-1.827-.886-4.112-2.856-5.123-.778-.389-1.728-.599-2.75-.599-.97 0-1.894.198-2.74.598-2.136 1.027-3.365 3.282-3.365 6.19 0 2.902 1.23 5.162 3.379 6.203a6.493 6.493 0 0 0 2.726.577c2.84 0 4.837-1.684 5.55-3.362l.384-.886-1.964-.848-.376.896zM44.282 35.605c0-1.06.237-4.53 3.247-4.53 1.592 0 1.592.56 1.592.78 0 .23-.045.423-.147.622l-.461.926 1.998.858.39-.87c.179-.39.356-.878.356-1.537 0-1.34-.976-2.904-3.728-2.904-3.323 0-5.388 2.55-5.388 6.655v1.5h-2.243v2.122h2.243v8.93h-2.023v2.12h6.333v-2.12h-2.169v-8.93h3.7v-2.123h-3.7v-1.5"/>
        <path fill="#454B4C" d="M58.485 45.108l-.38.89c-.303.71-1.256 2.356-3.572 2.356a4.074 4.074 0 0 1-1.82-.42c-1.975-.957-2.186-3.289-2.186-4.24 0-.745.16-3.255 2.234-4.239a4.448 4.448 0 0 1 1.898-.422c.927 0 3.097.172 3.097 1.746 0 .215-.069.394-.124.5l-.457.918 1.94.837.414-.777c.249-.465.363-.924.363-1.478 0-2.392-1.999-3.873-5.233-3.873-.955 0-1.953.218-2.801.609-2.172 1.012-3.471 3.323-3.471 6.179 0 2.833 1.264 5.127 3.383 6.139.608.293 1.58.64 2.763.64 3.688 0 5.163-2.777 5.533-3.625l.383-.9-1.964-.84"/>
        <path fill="#6CB644" d="M72.602 58.373c-6.54 8.243-17.382 13.393-27.922 11.495l-.105-.021c-3.595-.28-7.122-1.206-10.346-2.859-9.624-4.936-14.372-16.4-12.157-26.846 1.623-7.657 7.1-13.897 14.228-16.95-12.172 2.107-18.987 13.947-17.7 25.787 1.204 11.063 9.424 20.042 20.037 22.843 10.401 2.746 21.804.24 30.208-6.454 8.651-6.892 12.81-17.662 13.1-28.564.298-11.251-4.278-22.101-12.652-29.613l-2.122 2.355a35.179 35.179 0 0 1 10.636 17.91c.078.227.155.454.229.684 3.284 10.296 1.303 21.743-5.434 30.233"/>
        <path fill="#6CB644" d="M35.127 21.096C24.863 23.68 16.61 32.134 15.042 42.733 13.465 53.38 18.418 64.37 26.784 70.899c8.653 6.756 19.976 8.301 30.501 5.966 10.739-2.382 19.778-9.22 24.903-18.99l.71.385c.29-.514.574-1.032.846-1.558l-2.95-1.548c-4.723 9.36-12.988 16.715-23.264 19.22-9.837 2.397-20.66 1.057-28.988-4.925-8.571-6.156-13.186-16.904-11.728-27.37 1.457-10.451 10.284-18.67 20.399-20.688 3.74-.747 7.49-.729 11.227.29 2.463.671 4.872 1.85 6.998 3.258a28.127 28.127 0 0 1 2.837 2.186c.61.529 1.413 1.204 1.956 1.686l-.005-.008c-6.193-5.634-9.727-6.922-12.566-7.686-4.113-1.107-8.414-1.058-12.533-.021"/>
        <path fill="#00A9AC" d="M59.223 77.327c-10.516 2.846-22.218 1.642-31.391-4.46-9.003-5.987-14.427-16.173-14.448-27.007-.022-11.05 6.743-21.345 16.869-25.702 10.773-4.637 23.76-1.784 29.973 8.645l.008.007c-6.7-11.25-21.166-14.11-32.491-8.369-10.194 5.168-16.447 15.547-16.196 27.011.246 11.231 6.198 21.57 15.471 27.758 9.623 6.42 21.655 7.437 32.69 4.62 11.043-2.819 20.16-10.274 25.526-20.302l-2.337-1.268c-5.196 9.17-13.367 16.276-23.674 19.067"/>
        <path fill="#009A67" d="M30.253 20.158C20.127 24.515 13.362 34.81 13.383 45.86c.022 10.834 5.446 21.02 14.449 27.008 9.173 6.101 20.875 7.305 31.391 4.459 10.307-2.79 18.478-9.896 23.674-19.067l-.709-.385c-5.125 9.77-14.164 16.608-24.903 18.99-10.525 2.335-21.848.79-30.501-5.966-8.366-6.53-13.319-17.519-11.742-28.166 1.57-10.599 9.821-19.053 20.085-21.637 4.119-1.037 8.42-1.086 12.533.021 2.839.764 6.373 2.052 12.566 7.686-6.214-10.429-19.2-13.282-29.973-8.645"/>
        <path fill="#00A9AC" d="M58.85 8.543c16.472 9.568 23.946 32.403 10.865 47.903-6.76 8.01-17.154 12.58-27.589 10.12C32.184 64.22 25.848 55.969 23.69 46.33c.219 11.557 9.809 21.47 20.886 23.517 6.284.49 12.774-.999 18.203-4.069 9.737-5.505 14.88-15.528 15.88-26.468.37-4.038.07-8.036-.85-11.854C70.842 6.938 47.967-4.447 27.36 2.126l.92 2.932c10.184-3.456 21.373-1.856 30.57 3.485"/>
        <path fill="#009A67" d="M78.659 39.31c-1 10.94-6.144 20.963-15.881 26.468-5.43 3.07-11.919 4.559-18.203 4.069.035.006.07.015.105.02 10.54 1.899 21.382-3.25 27.922-11.494 6.737-8.49 8.718-19.937 5.434-30.233-.074-.23-.151-.457-.229-.684a36.389 36.389 0 0 1 .852 11.854"/>
        <path fill="#454B4C" d="M101.814 42.11c.45-.217.97-.329 1.506-.329.606 0 1.044.086 1.441.29.787.39 1.222 1.255 1.383 1.973h-5.893c.21-.66.642-1.49 1.563-1.934zm4.724 5.052l-.234.555c-.355.837-1.443 1.737-2.984 1.737a3.487 3.487 0 0 1-1.504-.328c-1.605-.787-1.78-2.714-1.78-3.512v-.231h7.531v-.604c0-1.384-.665-3.125-2.152-3.881-.592-.3-1.317-.451-2.095-.451-.738 0-1.438.147-2.082.445-1.623.786-2.551 2.51-2.551 4.722 0 2.222.933 3.944 2.561 4.732.637.296 1.33.44 2.072.44 2.161 0 3.677-1.273 4.22-2.537l.236-.554-1.238-.533zM128.61 50.632V49.3h1.496v-6.092c0-.528-.16-.905-.472-1.13-.271-.2-.714-.297-1.358-.297-1.486 0-2.382.591-3.262 1.49v6.03h1.496v1.33h-4.44v-1.33h1.592v-7.367h-1.631v-1.335h2.983v.891c.96-.71 1.997-1.043 3.262-1.043.893 0 1.583.166 2.118.528.488.329 1.066.985 1.066 2.233V49.3h1.593v1.332h-4.443M159.02 50.786a4.87 4.87 0 0 1-2.101-.483c-1.611-.774-2.574-2.521-2.574-4.69 0-2.174.986-3.935 2.636-4.705.65-.3 1.408-.461 2.137-.461 2.438 0 3.955 1.1 3.955 2.874 0 .409-.083.744-.269 1.083l-.259.483-1.218-.527.282-.572c.052-.095.112-.261.112-.467 0-1.39-1.823-1.54-2.603-1.54a3.73 3.73 0 0 0-1.57.352c-1.716.819-1.85 2.876-1.85 3.48 0 .791.18 2.704 1.817 3.499.49.231.972.342 1.506.342 1.921 0 2.711-1.364 2.962-1.952l.236-.552 1.232.53-.235.553c-.278.65-1.392 2.753-4.195 2.753M190.858 50.786a4.9 4.9 0 0 1-2.106-.483c-1.607-.774-2.57-2.521-2.57-4.69 0-2.174.982-3.935 2.637-4.705a5.185 5.185 0 0 1 2.136-.461c2.439 0 3.955 1.1 3.955 2.874 0 .409-.086.744-.267 1.083l-.264.483-1.216-.527.285-.572c.049-.095.111-.261.111-.467 0-1.39-1.82-1.54-2.604-1.54-.543 0-1.097.128-1.568.352-1.723.819-1.857 2.876-1.857 3.48 0 .791.177 2.704 1.818 3.499.496.231.978.342 1.51.342 1.92 0 2.709-1.364 2.962-1.952l.237-.552 1.23.53-.233.553c-.278.65-1.395 2.753-4.196 2.753M205.936 50.632V49.3h1.59v-7.366h-1.63v-1.335h2.984v.851c.767-.675 1.544-1.003 2.368-1.003 1.788 0 1.977 1.217 1.977 1.741 0 .484-.162.962-.441 1.312l-.341.43-1.103-.734.38-.506a.918.918 0 0 0 .156-.502c0-.228 0-.407-.628-.407-.913 0-1.676.773-2.368 1.62v5.9h1.701v1.33h-4.645M221.154 44.044c-.159-.718-.593-1.583-1.383-1.974-.395-.203-.835-.289-1.441-.289-.537 0-1.059.112-1.505.33-.918.443-1.355 1.272-1.566 1.933h5.895zm-2.824 6.742c-.74 0-1.436-.144-2.072-.44-1.625-.788-2.56-2.51-2.56-4.732 0-2.212.929-3.936 2.55-4.722a4.926 4.926 0 0 1 2.082-.445c.79 0 1.496.152 2.095.45 1.488.757 2.157 2.498 2.157 3.882v.604h-7.534v.23c0 .799.175 2.726 1.778 3.513.451.215.97.328 1.504.328 1.544 0 2.63-.9 2.987-1.737l.23-.555 1.238.533-.236.55c-.54 1.268-2.052 2.541-4.22 2.541zM231.133 44.044c-.16-.718-.592-1.583-1.38-1.974-.394-.203-.84-.289-1.442-.289-.54 0-1.059.112-1.507.33-.916.443-1.355 1.272-1.563 1.933h5.892zm-2.822 6.742a4.888 4.888 0 0 1-2.073-.44c-1.63-.788-2.56-2.51-2.56-4.732 0-2.212.93-3.936 2.548-4.722a4.945 4.945 0 0 1 2.085-.445c.786 0 1.495.152 2.09.45 1.494.757 2.162 2.498 2.162 3.882v.604h-7.535c-.002.074 0 .155 0 .23 0 .799.173 2.726 1.778 3.513.45.215.97.328 1.505.328 1.545 0 2.625-.9 2.982-1.737l.235-.555 1.236.533-.233.55c-.543 1.268-2.054 2.541-4.22 2.541zM244.594 50.786a3.625 3.625 0 0 1-2.178-.717v.563h-1.354V46.77h1.278l.035.56c.114 1.678 1.448 2.124 2.22 2.124 1.155 0 1.903-.645 1.903-1.637 0-.857-.422-1.322-1.458-1.6a15.698 15.698 0 0 0-.843-.181l-.057-.015c-.16-.032-.272-.056-.354-.069-1.084-.223-2.526-.75-2.526-2.764 0-1.569 1.271-2.741 2.966-2.741.74 0 1.319.166 1.807.532v-.605h1.35v4.13h-1.26l-.064-.525c-.096-.787-.336-1.451-.637-1.76-.33-.363-.834-.438-1.196-.438-.803 0-1.617.484-1.617 1.407 0 .734.24 1.203 1.466 1.454.085.022.205.04.342.073.349.064.753.148.968.206 1.635.424 2.466 1.402 2.466 2.896 0 1.748-1.345 2.969-3.257 2.969M149.881 50.632V49.3h1.495v-6.092c0-.528-.158-.905-.47-1.13-.274-.2-.714-.297-1.356-.297-1.488 0-2.386.591-3.268 1.49v6.03h1.494v1.33h-4.436v-1.33h1.587v-7.367h-1.626v-1.335h2.98v.891c.96-.71 2.003-1.043 3.27-1.043.888 0 1.581.166 2.112.528.487.329 1.068.985 1.068 2.233V49.3h1.589v1.332h-4.439M166.38 38.3a.795.795 0 0 1 0-1.588.793.793 0 1 1 0 1.588M164.19 50.632V49.3h1.59v-7.366h-1.632v-1.335h2.984V49.3h1.61v1.332h-4.551M233.168 50.632V49.3h1.593v-7.366h-1.63v-1.335h2.98v.851c.768-.675 1.545-1.003 2.37-1.003 1.784 0 1.978 1.217 1.978 1.741 0 .484-.163.962-.445 1.312l-.34.43-1.097-.734.379-.506a.944.944 0 0 0 .15-.502c0-.228 0-.407-.625-.407-.916 0-1.681.773-2.37 1.62v5.9h1.706v1.33h-4.65M116.577 50.632V49.3h1.59v-7.366h-1.627v-1.335h2.979V49.3h1.613v1.332h-4.555"/>
        <path fill="#454B4C" d="M116.58 50.632v-1.34h1.587v-7.358h-1.627v-1.332h2.979v8.69h1.613v1.34h-4.552"/>
        <path fill="#454B4C" d="M112.656 41.94h2.93l.01-1.338h-2.935l-.011-1.205c0-.606.133-2.655 1.843-3.466a3.686 3.686 0 0 1 1.555-.35c.776 0 2.59.152 2.59 1.54h-.003.002a.34.34 0 0 1-.016.105c-.008 0-.107-.004-.127 0a.984.984 0 0 0 .094 1.963.92.92 0 0 0 .684-.295c.503-.499.654-1.265.654-1.265.034-.16.05-.332.05-.509 0-1.77-1.505-2.862-3.928-2.862-.723 0-1.475.162-2.124.462-1.637.76-2.619 2.502-2.619 4.664l.011 1.218h-1.744l-.01 1.332h1.758v7.373h-1.584v1.325h4.621v-1.325h-1.7V41.94M175.468 48.145c-.65.604-1.671 1.31-2.896 1.31-1.178 0-1.597-.716-1.597-1.323 0-.98.618-1.567 1.843-1.75.517-.078 1.688-.165 2.65-.224v1.987zm1.94 1.31c-.428 0-.589-.055-.589-.65V42.87c0-1.103-.463-1.816-1.423-2.176-.47-.166-.99-.248-1.643-.248-1.792 0-3.603.84-3.603 2.715 0 .638.242 1.065.446 1.318l.343.42 1.094-.726-.38-.51a.908.908 0 0 1-.152-.502c0-1.092 1.416-1.38 2.252-1.38.494 0 .846.054 1.167.174.364.133.548.316.548.915v1.942c-.978.057-2.205.15-2.847.25-1.902.282-2.996 1.397-2.996 3.069 0 1.322 1.01 2.657 2.947 2.657 1.304 0 2.37-.552 3.057-1.054.283.683.906 1.054 1.779 1.054.55 0 1.044-.228 1.476-.682l-.932-.977c-.243.284-.427.324-.544.324zM202.02 48.145c-.652.604-1.668 1.31-2.896 1.31-1.18 0-1.591-.716-1.591-1.323 0-.98.616-1.567 1.837-1.75.518-.078 1.69-.165 2.65-.224v1.987zm1.938 1.31c-.426 0-.587-.055-.587-.65V42.87c0-1.103-.463-1.816-1.422-2.176-.468-.166-.99-.248-1.642-.248-1.791 0-3.603.84-3.603 2.715 0 .638.24 1.065.445 1.318l.341.42 1.093-.726-.38-.51c-.013-.021-.148-.218-.148-.502 0-1.092 1.414-1.38 2.252-1.38.498 0 .849.054 1.166.174.364.133.547.316.547.915v1.942c-.972.057-2.21.15-2.847.25-1.906.282-2.996 1.397-2.996 3.069 0 1.322 1.012 2.657 2.947 2.657 1.306 0 2.369-.552 3.06-1.054.281.683.904 1.054 1.774 1.054.554 0 1.047-.228 1.476-.682l-.928-.977c-.244.284-.428.324-.548.324zM179.502 50.632V49.3h1.591V35.606c-.096.004-.195.004-.299.004h-1.336v-1.337h1.201c.404 0 .861-.043.97-.072l.065-.017h.748V49.3h1.647v1.332h-4.587M139.425 48.145c-.65.604-1.666 1.31-2.896 1.31-1.177 0-1.594-.716-1.594-1.323 0-.98.617-1.567 1.844-1.75.513-.078 1.687-.165 2.646-.224v1.987zm1.936 1.31c-.422 0-.586-.055-.586-.65V42.87c0-1.103-.46-1.816-1.423-2.176-.465-.166-.985-.248-1.64-.248-1.794 0-3.605.84-3.605 2.715 0 .638.245 1.065.448 1.318l.341.42 1.094-.726-.378-.51a.89.89 0 0 1-.154-.502c0-1.092 1.42-1.38 2.254-1.38.497 0 .847.054 1.169.174.363.133.544.316.544.915v1.942c-.972.057-2.206.15-2.85.25-1.9.282-2.994 1.397-2.994 3.069 0 1.322 1.012 2.657 2.948 2.657 1.308 0 2.37-.552 3.06-1.054.28.683.905 1.054 1.772 1.054.556 0 1.05-.228 1.48-.682l-.929-.977c-.246.284-.426.324-.551.324z"/>
    </g>
</svg>
