<?xml version="1.0" encoding="UTF-8" standalone="no"?>
<svg
   xmlns:dc="http://purl.org/dc/elements/1.1/"
   xmlns:cc="http://creativecommons.org/ns#"
   xmlns:rdf="http://www.w3.org/1999/02/22-rdf-syntax-ns#"
   xmlns:svg="http://www.w3.org/2000/svg"
   xmlns="http://www.w3.org/2000/svg"
   viewBox="0 0 716.93335 477.94666"
   height="477.94666"
   width="716.93335"
   xml:space="preserve"
   id="svg2"
   version="1.1"><metadata
     id="metadata8"><rdf:RDF><cc:Work
         rdf:about=""><dc:format>image/svg+xml</dc:format><dc:type
           rdf:resource="http://purl.org/dc/dcmitype/StillImage" /></cc:Work></rdf:RDF></metadata><defs
     id="defs6" /><g
     transform="matrix(1.3333333,0,0,-1.3333333,0,477.94667)"
     id="g10"><g
       transform="scale(0.1)"
       id="g12"><path
         id="path14"
         style="fill:#e43451;fill-opacity:1;fill-rule:nonzero;stroke:none"
         d="M 0,3584.63 H 5376.96 V 1792.31 H 0 v 1792.32" /><path
         id="path16"
         style="fill:#ffffff;fill-opacity:1;fill-rule:nonzero;stroke:none"
         d="M 0,1792.31 H 5376.96 V 0 H 0 v 1792.31" /><path
         id="path18"
         style="fill:#ffffff;fill-opacity:1;fill-rule:nonzero;stroke:none"
         d="m 1844.19,2688.47 c 0,-372.23 -301.75,-673.99 -673.98,-673.99 -372.237,0 -673.987,301.76 -673.987,673.99 0,372.23 301.75,673.99 673.987,673.99 372.23,0 673.98,-301.76 673.98,-673.99" /><path
         id="path20"
         style="fill:#e43451;fill-opacity:1;fill-rule:nonzero;stroke:none"
         d="m 2055.99,2688.47 c 0,-351.77 -285.17,-636.94 -636.95,-636.94 -351.77,0 -636.935,285.17 -636.935,636.94 v 0 c 0,351.77 285.165,636.94 636.935,636.94 351.78,0 636.95,-285.17 636.95,-636.94 v 0" /><path
         id="path22"
         style="fill:#ffffff;fill-opacity:1;fill-rule:nonzero;stroke:none"
         d="m 1253.62,2672.21 -91.55,70.24 -91.54,-70.27 35.24,113.26 -91.85,69.81 113.34,-0.24 34.77,113.42 34.81,-113.41 113.33,0.28 -91.83,-69.84 35.28,-113.25" /><path
         id="path24"
         style="fill:#ffffff;fill-opacity:1;fill-rule:nonzero;stroke:none"
         d="m 1972.03,2672.21 -91.56,70.24 -91.53,-70.27 35.23,113.26 -91.84,69.81 113.33,-0.24 34.77,113.42 34.81,-113.41 113.34,0.28 -91.83,-69.84 35.28,-113.25" /><path
         id="path26"
         style="fill:#ffffff;fill-opacity:1;fill-rule:nonzero;stroke:none"
         d="m 1613.19,2938.83 -91.56,70.24 -91.53,-70.27 35.24,113.26 -91.85,69.81 113.34,-0.24 34.77,113.42 34.8,-113.41 113.34,0.29 -91.82,-69.85 35.27,-113.25" /><path
         id="path28"
         style="fill:#ffffff;fill-opacity:1;fill-rule:nonzero;stroke:none"
         d="m 1388.05,2245.6 -91.56,70.24 -91.54,-70.27 35.24,113.25 -91.85,69.82 113.34,-0.24 34.77,113.42 34.8,-113.41 113.34,0.28 -91.82,-69.85 35.28,-113.24" /><path
         id="path30"
         style="fill:#ffffff;fill-opacity:1;fill-rule:nonzero;stroke:none"
         d="m 1837.6,2245.6 -91.55,70.24 -91.54,-70.27 35.24,113.25 -91.84,69.82 113.33,-0.24 34.77,113.42 34.81,-113.41 113.34,0.28 -91.83,-69.85 35.27,-113.24" /></g></g></svg>