<?xml version="1.0" encoding="UTF-8" standalone="no"?>
<!DOCTYPE svg PUBLIC "-//W3C//DTD SVG 1.1//EN" "http://www.w3.org/Graphics/SVG/1.1/DTD/svg11.dtd">
<svg version="1.1" xmlns="http://www.w3.org/2000/svg" xmlns:xlink="http://www.w3.org/1999/xlink" preserveAspectRatio="xMidYMid meet" viewBox="-0.9777460968768759 -1.025 140.74331986736868 29.025" width="136.74" height="25.02"><defs><path d="M131.87 14.09L128.87 14.09L130.57 9.79L131.87 14.09ZM127.47 18.79L128.27 16.59L132.57 16.59L133.37 18.79L136.77 18.79L132.07 6.29L128.77 6.29L124.07 18.79L127.47 18.79ZM123.47 18.79L123.47 6.29L120.07 6.29L120.07 18.79L123.47 18.79ZM109.07 14.49C109.07 17.49 111.47 18.79 114.27 18.79C116.87 18.79 119.47 17.79 119.47 14.79C119.47 12.59 117.67 11.79 115.97 11.29C114.07 10.79 112.37 10.79 112.37 9.79C112.37 8.99 113.37 8.79 113.87 8.79C114.87 8.79 115.87 9.09 115.87 10.19C116.17 10.19 118.57 10.19 118.87 10.19C118.87 7.49 116.47 6.19 114.07 6.19C111.77 6.19 109.07 7.19 109.07 9.99C109.07 12.19 111.07 12.99 112.67 13.39C114.47 13.89 116.17 14.09 116.17 15.19C116.17 16.19 115.17 16.39 114.17 16.39C112.87 16.39 111.97 15.89 111.97 14.39C111.77 14.39 110.77 14.39 108.97 14.39C109.02 14.44 109.05 14.47 109.07 14.49ZM103.37 9.79L104.77 14.09L101.77 14.09L103.47 9.79L103.37 9.79ZM100.37 18.79L101.17 16.59L105.57 16.59L106.37 18.79L109.77 18.79L105.07 6.29L101.67 6.29L97.07 18.79L100.37 18.79ZM87.37 18.79L87.37 8.19L94.67 18.79L96.07 18.79L96.07 6.29L94.87 6.29L94.87 16.79L87.47 6.39L86.07 6.39L86.07 18.79L87.37 18.79ZM84.67 18.79L84.67 6.29L83.47 6.29L83.47 18.79L84.67 18.79ZM74.37 18.79L74.37 13.79L78.67 13.79L78.67 18.79L81.87 18.79L81.87 6.29L78.67 6.29L78.67 10.79L74.37 10.79L74.37 6.39L71.07 6.39L71.07 18.79L74.37 18.79ZM70.07 10.79C70.07 7.99 67.37 6.29 64.77 6.29C61.17 6.29 58.77 9.09 58.77 12.59C58.77 15.99 61.17 18.79 64.77 18.79C67.77 18.79 70.07 16.99 70.27 13.79C69.97 13.79 67.57 13.79 67.27 13.79C67.07 15.29 66.27 16.09 64.77 16.09C62.77 16.09 61.97 14.29 61.97 12.59C61.97 10.79 62.77 8.99 64.77 8.99C66.07 8.99 67.07 9.59 67.17 10.79C67.37 10.79 68.37 10.79 70.17 10.79C70.11 10.79 70.08 10.79 70.07 10.79ZM58.57 18.79L58.57 15.99L51.57 15.99L51.57 13.59L57.77 13.59L57.77 11.09L51.77 11.09L51.77 8.79L58.37 8.79L58.37 6.39L48.37 6.39L48.37 18.79L58.57 18.79ZM47.37 6.29L36.87 6.29L36.87 9.09L40.57 9.09L40.57 18.79L43.87 18.79L43.87 9.09L47.57 9.09L47.57 6.29L47.37 6.29Z" id="dtZLSTp4o"></path><path d="M25.3 10.2C25.6 10.4 25.9 10.2 25.8 9.8C25.69 9.61 25.16 8.68 24.2 7L23.6 7C17.6 17.62 14.27 23.52 13.6 24.7C13.2 25.1 12.6 25.1 12.4 24.7C12.17 24.32 11.04 22.42 9 19L8.8 18.2C8.8 15.2 8.8 13.53 8.8 13.2C8.8 12.7 8.6 12.4 8.3 12.2C7.5 11.5 1.1 5.9 0.3 5.2C-0.2 4.9 0 4.2 0.7 4.2C1.65 4.2 6.42 4.2 15 4.2C17.1 5.4 18.27 6.07 18.5 6.2C18.7 6.4 18.7 6.6 18.5 6.7C18.36 6.96 17.24 9.04 17.1 9.3C17.1 9.5 16.9 9.6 16.8 9.5C16.61 9.4 15.68 8.9 14 8L13.4 7.8C11.18 7.8 9.95 7.8 9.7 7.8C9.4 7.8 9.3 8.2 9.5 8.4C9.75 8.6 11.75 10.2 12 10.4C12.3 10.7 12.4 11.1 12.4 11.4C12.4 12.06 12.4 17.34 12.4 18C12.4 18.4 12.9 18.5 13.1 18.2C14.14 16.4 22.46 2 23.5 0.2C23.7 -0.1 24.5 -0.1 24.5 0.2C25.57 2.05 34.13 16.85 35.2 18.7C35.7 19.3 35 19.9 34.4 19.7C33.16 18.97 23.24 13.13 22 12.4C21.8 12.4 21.7 12.1 21.8 12C21.95 11.75 23.15 9.75 23.3 9.5C23.3 9.3 23.6 9.3 23.8 9.3C23.9 9.37 24.4 9.7 25.3 10.3C25.3 10.25 25.3 10.21 25.3 10.2Z" id="b1TxvrALEe"></path></defs><g><g><use xlink:href="#dtZLSTp4o" opacity="1" fill="#000000" fill-opacity="1"></use><g><use xlink:href="#dtZLSTp4o" opacity="1" fill-opacity="0" stroke="#000000" stroke-width="1" stroke-opacity="0"></use></g></g><g><use xlink:href="#b1TxvrALEe" opacity="1" fill="#2f7de1" fill-opacity="1"></use><g><use xlink:href="#b1TxvrALEe" opacity="1" fill-opacity="0" stroke="#000000" stroke-width="1" stroke-opacity="0"></use></g></g></g></svg>